HIERARCHY
ROOT Hips
{
	OFFSET 48.841599 5.296842 49.866501
	CHANNELS 6 Xposition Yposition Zposition Xrotation Yrotation Zrotation
	JOINT spine
	{
		OFFSET 0.000000 -0.359108 6.244789
		CHANNELS 3 Xrotation Yrotation Zrotation
		JOINT spine1
		{
			OFFSET 0.000000 -0.000001 9.069412
			CHANNELS 3 Xrotation Yrotation Zrotation
			JOINT spine2
			{
				OFFSET 0.000000 -0.000001 8.690140
				CHANNELS 3 Xrotation Yrotation Zrotation
				JOINT Neck
				{
					OFFSET 0.000000 -1.063724 22.311195
					CHANNELS 3 Xrotation Yrotation Zrotation
					JOINT Head
					{
						OFFSET 0.000000 -0.000001 6.740807
						CHANNELS 3 Xrotation Yrotation Zrotation
						End Site
						{
							OFFSET 0.000000 5.380968 16.316498
						}
					}
				}
				JOINT RightShoulder
				{
					OFFSET -3.659161 0.509512 9.384682
					CHANNELS 3 Xrotation Yrotation Zrotation
					JOINT RightArm
					{
						OFFSET 0.000000 -0.000002 12.308899
						CHANNELS 3 Xrotation Yrotation Zrotation
						JOINT RightArmRoll
						{
							OFFSET 0.000000 -0.000001 6.213753
							CHANNELS 3 Xrotation Yrotation Zrotation
							JOINT RightForeArm
							{
								OFFSET 0.000000 -0.000003 18.098503
								CHANNELS 3 Xrotation Yrotation Zrotation
								JOINT RightForeArmRoll
								{
									OFFSET 0.000000 -0.000001 6.972794
									CHANNELS 3 Xrotation Yrotation Zrotation
									JOINT RightHand
									{
										OFFSET 0.000000 -0.000002 13.992905
										CHANNELS 3 Xrotation Yrotation Zrotation
										End Site
										{
											OFFSET 0.000000 0.000000 0.100006
										}
									}
								}
							}
						}
					}
				}
				JOINT LeftShoulder
				{
					OFFSET 3.659161 0.509512 9.384682
					CHANNELS 3 Xrotation Yrotation Zrotation
					JOINT LeftArm
					{
						OFFSET 0.000000 -0.000002 12.308899
						CHANNELS 3 Xrotation Yrotation Zrotation
						JOINT LeftArmRoll
						{
							OFFSET 0.000000 -0.000001 6.213753
							CHANNELS 3 Xrotation Yrotation Zrotation
							JOINT LeftForeArm
							{
								OFFSET 0.000000 -0.000003 18.098503
								CHANNELS 3 Xrotation Yrotation Zrotation
								JOINT LeftForeArmRoll
								{
									OFFSET 0.000000 -0.000001 6.972801
									CHANNELS 3 Xrotation Yrotation Zrotation
									JOINT LeftHand
									{
										OFFSET 0.000000 -0.000002 13.992897
										CHANNELS 3 Xrotation Yrotation Zrotation
										End Site
										{
											OFFSET 0.000000 0.000000 0.100006
										}
									}
								}
							}
						}
					}
				}
			}
		}
	}
	JOINT RightUpLeg
	{
		OFFSET -5.535149 0.851454 -1.014999
		CHANNELS 3 Xrotation Yrotation Zrotation
		JOINT RightUpLegRoll
		{
			OFFSET 0.000000 -0.000002 16.407501
			CHANNELS 3 Xrotation Yrotation Zrotation
			JOINT RightLeg
			{
				OFFSET 0.000000 0.000003 -20.318100
				CHANNELS 3 Xrotation Yrotation Zrotation
				JOINT RightLegRoll
				{
					OFFSET 0.000000 -0.000003 20.384598
					CHANNELS 3 Xrotation Yrotation Zrotation
					JOINT RightFoot
					{
						OFFSET 0.000000 -0.000003 16.966797
						CHANNELS 3 Xrotation Yrotation Zrotation
						JOINT RightToeBase
						{
							OFFSET 0.000000 -0.000002 14.183403
							CHANNELS 3 Xrotation Yrotation Zrotation
							End Site
							{
								OFFSET 0.006012 0.791745 6.868889
							}
						}
					}
				}
			}
		}
	}
	JOINT LeftUpLeg
	{
		OFFSET 5.535149 0.851454 -1.014999
		CHANNELS 3 Xrotation Yrotation Zrotation
		JOINT LeftUpLegRoll
		{
			OFFSET 0.000000 -0.000002 16.407600
			CHANNELS 3 Xrotation Yrotation Zrotation
			JOINT LeftLeg
			{
				OFFSET 0.000000 -0.000003 20.318100
				CHANNELS 3 Xrotation Yrotation Zrotation
				JOINT LeftLegRoll
				{
					OFFSET 0.000000 -0.000003 20.573097
					CHANNELS 3 Xrotation Yrotation Zrotation
					JOINT LeftFoot
					{
						OFFSET 0.000000 -0.000003 16.778297
						CHANNELS 3 Xrotation Yrotation Zrotation
						JOINT LeftToeBase
						{
							OFFSET 0.000000 -0.000002 14.183403
							CHANNELS 3 Xrotation Yrotation Zrotation
							End Site
							{
								OFFSET -0.026943 0.791745 6.868896
							}
						}
					}
				}
			}
		}
	}
}
MOTION
Frames: 10
Frame Time: 0.041667
47.976395 -46.081024 84.191391 1.505121 -0.351382 -3.266707 -1.967951 0.328841 -0.008967 0.067095 0.646771 -0.021744 1.712209 0.646466 -0.029495 9.102999 -6.876240 -1.343024 5.340912 3.034305 -0.827635 -10.807815 -70.391977 -13.295714 -22.468971 -106.246065 -13.334841 0.000001 0.000005 0.000006 13.402820 -11.954620 0.957184 -0.000001 0.000006 -3.000002 -5.000168 -7.998714 0.000185 -21.408007 60.134003 25.288693 -7.402463 115.460646 -10.621879 -0.000000 -0.000000 0.000001 16.169172 1.648055 0.274028 0.000004 -0.000008 2.999990 -5.000197 7.999930 -0.000026 -4.690907 -177.377813 0.972050 -179.999991 0.000005 -1.098990 164.004672 -0.966102 -1.094921 -0.000005 -0.000006 0.457503 75.179940 6.754045 2.066007 26.227773 -7.347782 1.153329 1.573625 177.304020 -1.942846 -0.000005 -0.000004 -1.202180 -15.234305 -0.651073 0.843813 0.000008 -0.000003 -0.737833 76.565362 -6.680400 -2.182395 27.828670 7.226326 -3.441906 
47.973198 -46.050915 84.196793 1.529096 -0.347772 -3.279647 -1.970383 0.327905 -0.007885 0.062397 0.645079 -0.018793 1.707518 0.644808 -0.026528 9.174826 -6.873613 -1.355026 5.278010 2.980552 -0.835176 -10.797540 -70.392695 -13.284315 -22.377704 -106.259473 -13.257945 0.000002 0.000005 0.000008 13.467811 -11.954693 0.962527 -0.000004 0.000006 -3.000000 -5.000169 -7.998713 0.000183 -21.394627 60.133040 25.272897 -7.372400 115.474211 -10.634045 -0.000000 -0.000000 0.000000 16.202102 1.661954 0.272979 0.000003 -0.000008 2.999991 -5.000195 7.999930 -0.000027 -4.726363 -177.383920 0.961652 -179.999991 0.000005 -1.097993 164.016174 -0.967117 -1.095001 -0.000006 -0.000006 0.456651 75.161020 6.754334 2.065979 26.226052 -7.347782 1.151218 1.536730 177.298966 -1.939904 -0.000004 -0.000004 -1.202200 -15.238695 -0.646882 0.843961 0.000007 -0.000003 -0.737238 76.563142 -6.680439 -2.182130 27.825634 7.226296 -3.438280 
47.997097 -46.030720 84.192581 1.553376 -0.344212 -3.292636 -1.972901 0.326994 -0.006787 0.057511 0.643406 -0.015781 1.702627 0.643172 -0.023500 9.247554 -6.870621 -1.366839 5.212845 2.925701 -0.842537 -10.785130 -70.393548 -13.270548 -22.283858 -106.271555 -13.178113 0.000001 0.000005 0.000007 13.533504 -11.954515 0.967873 -0.000003 0.000007 -3.000002 -5.000167 -7.998716 0.000184 -21.380616 60.132398 25.256373 -7.339989 115.486655 -10.649578 -0.000000 0.000000 0.000001 16.235028 1.675283 0.272024 0.000005 -0.000008 2.999991 -5.000197 7.999930 -0.000025 -4.762357 -177.390026 0.951207 -179.999991 0.000005 -1.097992 164.027143 -0.969087 -1.095364 -0.000006 -0.000006 0.455830 75.142258 6.754531 2.066031 26.224236 -7.347786 1.149162 1.499323 177.294922 -1.936806 -0.000005 -0.000005 -1.202270 -15.243681 -0.642783 0.844077 0.000006 -0.000003 -0.736671 76.560936 -6.680526 -2.181870 27.822699 7.226248 -3.434858 
47.991791 -46.023922 84.149391 1.577857 -0.340692 -3.305645 -1.975490 0.326100 -0.005675 0.052493 0.641747 -0.012726 1.697606 0.641550 -0.020429 9.320920 -6.867410 -1.378525 5.146102 2.870084 -0.849823 -10.771218 -70.394484 -13.255107 -22.186070 -106.284300 -13.093978 0.000002 0.000006 0.000008 13.599604 -11.954206 0.973215 -0.000001 0.000006 -3.000001 -5.000168 -7.998715 0.000185 -21.366225 60.131817 25.239379 -7.305760 115.499032 -10.667540 -0.000000 0.000000 -0.000000 16.267854 1.688232 0.271120 0.000003 -0.000009 2.999991 -5.000193 7.999932 -0.000023 -4.798721 -177.396146 0.940752 -179.999991 0.000005 -1.096995 164.037853 -0.970111 -1.094450 -0.000005 -0.000006 0.455028 75.123529 6.754762 2.065985 26.222515 -7.347787 1.147170 1.461577 177.289882 -1.933632 -0.000005 -0.000004 -1.202370 -15.249068 -0.638746 0.844193 0.000006 -0.000003 -0.736125 76.558860 -6.680614 -2.181504 27.819869 7.226193 -3.431585 
47.995895 -46.004623 84.157196 1.602457 -0.337197 -3.318687 -1.978121 0.325216 -0.004557 0.047400 0.640096 -0.009646 1.692516 0.639937 -0.017334 9.394638 -6.864073 -1.390143 5.078460 2.814028 -0.857121 -10.756367 -70.395372 -13.238643 -22.086803 -106.296916 -13.008211 0.000002 0.000005 0.000008 13.666107 -11.953768 0.978565 -0.000003 0.000006 -2.999999 -5.000171 -7.998714 0.000184 -21.351518 60.131394 25.222039 -7.270475 115.511340 -10.686852 -0.000000 -0.000000 -0.000002 16.300781 1.700946 0.270244 0.000005 -0.000008 2.999991 -5.000197 7.999929 -0.000030 -4.835296 -177.402266 0.930277 -179.999991 0.000005 -1.095984 164.048344 -0.971120 -1.094546 -0.000006 -0.000006 0.454239 75.104815 6.755002 2.065939 26.220900 -7.347781 1.145220 1.423611 177.284841 -1.930411 -0.000005 -0.000004 -1.202490 -15.254760 -0.634746 0.844296 0.000006 -0.000003 -0.735590 76.556667 -6.680723 -2.181247 27.817137 7.226124 -3.428398 
48.003796 -45.990318 84.192795 1.627090 -0.333719 -3.331731 -1.980762 0.324334 -0.003437 0.042289 0.638446 -0.006560 1.687405 0.638324 -0.014233 9.468436 -6.860744 -1.401754 5.010608 2.757887 -0.864526 -10.741376 -70.396383 -13.222001 -21.987294 -106.309531 -12.922154 0.000001 0.000006 0.000010 13.732608 -11.953305 0.983912 -0.000001 0.000006 -3.000000 -5.000169 -7.998714 0.000184 -21.336874 60.131066 25.204757 -7.234968 115.523634 -10.706558 -0.000000 -0.000000 0.000001 16.333709 1.713606 0.269367 0.000005 -0.000009 2.999989 -5.000195 7.999930 -0.000026 -4.871932 -177.408385 0.919805 -179.999991 0.000006 -1.095984 164.058849 -0.972130 -1.094642 -0.000006 -0.000006 0.453453 75.086080 6.755226 2.065994 26.219179 -7.347779 1.143258 1.385602 177.279787 -1.927171 -0.000005 -0.000004 -1.202620 -15.260545 -0.630754 0.844396 0.000005 -0.000003 -0.735058 76.554584 -6.680808 -2.180981 27.814403 7.226056 -3.425232 
47.971596 -45.934917 84.177994 1.651658 -0.330243 -3.344768 -1.983380 0.323447 -0.002322 0.037215 0.636791 -0.003486 1.682324 0.636707 -0.011144 9.542063 -6.857534 -1.413411 4.943213 2.701988 -0.872120 -10.726759 -70.397250 -13.205782 -21.890036 -106.321354 -12.838503 0.000002 0.000006 0.000007 13.799014 -11.952930 0.989275 -0.000004 0.000007 -3.000001 -5.000169 -7.998712 0.000183 -21.322355 60.130602 25.187613 -7.200030 115.535997 -10.725541 0.000000 -0.000000 0.000000 16.366638 1.726377 0.268448 0.000005 -0.000008 2.999990 -5.000196 7.999931 -0.000027 -4.908449 -177.415502 0.909432 -179.999991 0.000005 -1.094987 164.069340 -0.973140 -1.094739 -0.000007 -0.000006 0.452661 75.067372 6.755460 2.065946 26.217466 -7.347776 1.141285 1.347696 177.275757 -1.923916 -0.000005 -0.000005 -1.202740 -15.266134 -0.626745 0.844504 0.000007 -0.000003 -0.734520 76.552494 -6.680873 -2.180712 27.811572 7.225994 -3.422015 
47.981094 -45.924213 84.191696 1.676077 -0.326758 -3.357789 -1.985947 0.322548 -0.001214 0.032235 0.635126 -0.000444 1.677343 0.635080 -0.008087 9.615231 -6.854563 -1.425180 4.876966 2.646677 -0.879987 -10.713256 -70.398159 -13.190813 -21.793607 -106.334373 -12.755853 0.000002 0.000006 0.000008 13.865112 -11.952651 0.994639 -0.000004 0.000006 -3.000001 -5.000168 -7.998715 0.000186 -21.307967 60.130021 25.170656 -7.166428 115.548414 -10.742616 -0.000000 -0.000000 0.000002 16.399467 1.739433 0.267470 0.000005 -0.000008 2.999987 -5.000195 7.999931 -0.000025 -4.944699 -177.421622 0.899014 -179.999991 0.000005 -1.094987 164.080145 -0.974151 -1.093831 -0.000006 -0.000006 0.451854 75.048643 6.755679 2.065900 26.215746 -7.347777 1.139273 1.310044 177.270716 -1.920750 -0.000005 -0.000004 -1.202830 -15.271420 -0.622691 0.844619 0.000008 -0.000002 -0.733968 76.550301 -6.680979 -2.180453 27.808750 7.225933 -3.418699 
47.973595 -45.897915 84.194382 1.700258 -0.323254 -3.370785 -1.988440 0.321628 -0.000121 0.027405 0.633444 0.002548 1.672512 0.633433 -0.005078 9.687669 -6.851939 -1.437112 4.812545 2.592292 -0.888202 -10.701481 -70.398965 -13.177744 -21.700518 -106.347773 -12.676881 0.000002 0.000005 0.000009 13.930511 -11.952583 0.999978 -0.000001 0.000006 -3.000000 -5.000166 -7.998713 0.000184 -21.294090 60.129243 25.154303 -7.134959 115.560954 -10.756856 -0.000000 0.000000 0.000000 16.432405 1.752931 0.266389 0.000003 -0.000008 2.999992 -5.000197 7.999929 -0.000027 -4.980536 -177.427742 0.888633 -179.999991 0.000005 -1.093990 164.091238 -0.976136 -1.094193 -0.000006 -0.000006 0.451023 75.029833 6.755923 2.065863 26.213930 -7.347785 1.137197 1.272793 177.265675 -1.917687 -0.000005 -0.000004 -1.202890 -15.276210 -0.618564 0.844750 0.000006 -0.000003 -0.733393 76.548102 -6.681065 -2.180094 27.805804 7.225893 -3.415224 
47.974697 -45.878216 84.198395 1.724107 -0.319717 -3.383736 -1.990819 0.320682 0.000955 0.022782 0.631738 0.005472 1.667891 0.631763 -0.002139 9.759112 -6.849790 -1.449259 4.750638 2.539169 -0.896840 -10.692052 -70.399627 -13.167298 -21.613203 -106.360758 -12.604207 0.000001 0.000005 0.000008 13.995206 -11.952729 1.005303 -0.000005 0.000006 -2.999999 -5.000168 -7.998715 0.000184 -21.280848 60.128150 25.138687 -7.106164 115.574628 -10.767432 -0.000000 0.000000 -0.000002 16.465353 1.767038 0.265179 0.000005 -0.000008 2.999992 -5.000197 7.999930 -0.000026 -5.015773 -177.434846 0.878392 -179.999991 0.000005 -1.092993 164.102931 -0.977152 -1.094267 -0.000006 -0.000006 0.450160 75.010920 6.756193 2.065833 26.212212 -7.347781 1.135066 1.236098 177.260648 -1.914744 -0.000005 -0.000004 -1.202890 -15.280298 -0.614337 0.844907 0.000006 -0.000003 -0.732787 76.545793 -6.681144 -2.179842 27.802775 7.225864 -3.411522 
